<?xml version="1.0" encoding="UTF-8"?>
<svg width="120px" height="120px" viewBox="0 0 120 120" version="1.1" xmlns="http://www.w3.org/2000/svg" xmlns:xlink="http://www.w3.org/1999/xlink">
    <!-- Generator: Sketch 60.1 (88133) - https://sketch.com -->
    <title>icon/large/tchat/icon-tchat-blue</title>
    <desc>Created with Sketch.</desc>
    <g id="icon/large/tchat/icon-tchat-blue" stroke="none" stroke-width="1" fill="none" fill-rule="evenodd">
        <g id="icon/large/tchat/blue" transform="translate(17.000000, 0.000000)">
            <path d="M39.2484139,27.07 L6.8477704,27.07 C5.06473292,27.07 4.41816044,27.2556512 3.76630859,27.6042654 C3.12997257,27.9445816 2.6273129,28.4401952 2.27943596,29.07 L2,29.07 L2,29.6884272 C1.81615218,30.2199855 1.72,30.9145799 1.72,32.1977704 L1.72,54.0139756 C1.53811203,54.2026412 1.28276133,54.32 1,54.32 C0.44771525,54.32 0,53.8722847 0,53.32 L0,28.07 C0,22.5471525 4.4771525,18.07 10,18.07 L40.8243093,18.07 L39.2484139,27.07 L39.2484139,27.07 Z M53,41.1710131 L53,100.07 C53,105.592847 48.5228475,110.07 43,110.07 L10,110.07 C4.4771525,110.07 0,105.592847 0,100.07 L0,67.65 C0,67.0977153 0.44771525,66.65 1,66.65 C1.28276133,66.65 1.53811203,66.7673588 1.72,66.9560244 L1.72,97.9422296 C1.72,99.7252671 1.90565122,100.37184 2.25426541,101.023691 C2.60287959,101.675543 3.11445674,102.18712 3.76630859,102.535735 C4.41816044,102.884349 5.06473292,103.07 6.8477704,103.07 L46.3722296,103.07 C48.1552671,103.07 48.8018396,102.884349 49.4536914,102.535735 C50.1055433,102.18712 50.6171204,101.675543 50.9657346,101.023691 C51.3143488,100.37184 51.5,99.7252671 51.5,97.9422296 L51.5,41.7073659 L53,41.1710131 Z M20.5,23.07 C19.9477153,23.07 19.5,23.5177153 19.5,24.07 C19.5,24.6222847 19.9477153,25.07 20.5,25.07 L32.5,25.07 C33.0522847,25.07 33.5,24.6222847 33.5,24.07 C33.5,23.5177153 33.0522847,23.07 32.5,23.07 L20.5,23.07 Z" id="Shape" fill="#627A93" fill-rule="nonzero"></path>
            <path d="M33.3920185,39.5579914 C35.0080007,40.376878 36.4785678,41.4555336 37.745041,42.7509175 C38.1311336,43.1458237 38.1239888,43.7789484 37.7290825,44.165041 C37.3341763,44.5511336 36.7010516,44.5439888 36.314959,44.1490825 C35.201534,43.0102405 33.9086788,42.061936 32.4898246,41.3429402 C29.9980731,40.0867247 27.19447,39.5831807 24.4195028,39.8939865 C20.0128629,40.3794452 16.285178,42.7904502 13.9827149,46.197151 C16.8193424,43.049021 20.9285586,41.07 25.5,41.07 C32.3775689,41.07 38.2089321,45.5493396 40.2358565,51.749786 C40.1608512,51.3296501 40.0667841,50.9136918 39.9549822,50.5021843 C39.8101818,49.9692197 40.124851,49.4197826 40.6578157,49.2749822 C41.1907803,49.1301818 41.7402174,49.444851 41.8850178,49.9778157 C42.1141662,50.8212388 42.2776202,51.6811489 42.3740934,52.551472 C42.901138,57.3790871 41.2906354,61.947814 38.2997335,65.3134324 C35.5081657,69.3931324 30.8166908,72.07 25.5,72.07 C17.8171482,72.07 11.4398423,66.4802936 10.2130566,59.1458552 C9.91783128,58.1721958 9.70892612,57.1571318 9.59590661,56.108528 C8.60701023,47.0504492 15.1433925,38.903792 24.198692,37.906214 C27.3578195,37.5523791 30.5516247,38.1260058 33.3920185,39.5579914 Z M67.15,26.76 C68.8068542,26.76 70.15,28.1031458 70.15,29.76 C70.15,31.4168542 68.8068542,32.76 67.15,32.76 C65.4931458,32.76 64.15,31.4168542 64.15,29.76 C64.15,28.1031458 65.4931458,26.76 67.15,26.76 Z M58.15,24.76 C59.8068542,24.76 61.15,26.1031458 61.15,27.76 C61.15,29.4168542 59.8068542,30.76 58.15,30.76 C56.4931458,30.76 55.15,29.4168542 55.15,27.76 C55.15,26.1031458 56.4931458,24.76 58.15,24.76 Z M48.72,22.86 C50.3768542,22.86 51.72,24.2031458 51.72,25.86 C51.72,27.5168542 50.3768542,28.86 48.72,28.86 C47.0631458,28.86 45.72,27.5168542 45.72,25.86 C45.72,24.2031458 47.0631458,22.86 48.72,22.86 Z" id="Combined-Shape" fill="#13ACF7"></path>
            <path d="M26,97.07 C20.7532949,97.07 16.5,92.8167051 16.5,87.57 C16.5,82.3232949 20.7532949,78.07 26,78.07 C31.2467051,78.07 35.5,82.3232949 35.5,87.57 C35.5,92.8167051 31.2467051,97.07 26,97.07 Z M27.39,94.07 C28.5409578,94.0532429 29.6236947,93.5210502 30.34,92.62 C30.5812779,92.3685125 30.5812779,91.9714875 30.34,91.72 C29.8715844,91.0971918 29.2659026,90.5907461 28.57,90.24 C28.1867838,90.0327823 27.7135117,90.0975033 27.4,90.4 C27.19,90.58 26.98,90.77 26.78,90.97 C26.5331842,91.2583965 26.1250633,91.3481831 25.78,91.19 C25.6257652,91.1328952 25.4782247,91.0591249 25.34,90.97 C24.4042929,90.2873762 23.6351023,89.4019523 23.09,88.38 C23.0319337,88.2623481 22.9882845,88.1381158 22.96,88.01 C22.8350163,87.6335326 22.9837373,87.2204187 23.32,87.01 C23.55,86.83 23.78,86.64 23.99,86.45 C24.2698787,86.1994673 24.3857524,85.813222 24.29,85.45 C24.0686312,84.5920779 23.6072677,83.8150446 22.96,83.21 C22.7532716,82.9821941 22.4077448,82.9476414 22.16,83.13 C21.3221782,83.6237834 20.6929436,84.4058828 20.39,85.33 C20.1178637,86.3319278 20.2209898,87.3987497 20.68,88.33 C21.6102121,90.3828941 23.1183172,92.1203425 25.02,93.33 C25.7230708,93.7980405 26.5455235,94.05484 27.39,94.07 Z" id="Shape" fill="#627A93" fill-rule="nonzero"></path>
            <g id="avatar" transform="translate(14.000000, 44.000000)">
                <path d="M9.10442672,14.3850476 C9.96562069,14.4692381 10.3237931,14.6955 10.3553966,15.0138452 C11.1454828,14.7770595 11.782819,14.2955952 11.8986983,13.698369 C12.198931,11.6146548 9.97615517,11.3305119 9.34145259,11.1384524 C6.66306034,10.2755 6.92642241,8.58379762 6.82897845,7.93395238 C4.44818534,9.04596825 2.68453736,9.35905159 1.53803448,8.87320238 C-0.184353448,8.14179762 0.0605732759,11.3120952 1.04554741,12.2934405 C2.20434052,13.75625 4.89063362,14.4534524 9.10442672,14.3850476 Z" id="Path"></path>
                <path d="M10.8531509,9.91505952 C10.1724409,9.91505952 9.62061638,9.36379413 9.62061638,8.68377381 C9.62061638,8.00375349 10.1724409,7.4524881 10.8531509,7.4524881 C11.161899,7.45205792 11.4593154,7.5686474 11.685375,7.77872619 L11.685375,7.72084524 C11.4904871,6.5185 10.6319267,5.65817857 9.76809914,5.77657143 L9.73122845,5.77657143 C9.2951518,5.87055686 8.92796054,6.16245545 8.73835345,6.56585714 C8.47722034,7.08896093 8.39311943,7.68261034 8.49869397,8.25755952 C8.69884914,9.47832143 9.57321121,10.3623214 10.4554741,10.1965714 C10.688557,10.1543214 10.9044189,10.045586 11.0770086,9.8834881 C11.003576,9.90116187 10.9286112,9.91173442 10.8531509,9.91505952 Z" id="Path" fill="#FFFFFF"></path>
                <path d="M19.4914267,24.7089048 C19.4331121,24.6204115 21.3718319,16.7792143 22.2856983,14.4955476 C23.0757845,12.5170714 23.2812069,8.72586905 22.3884095,6.49745238 C22.3884095,6.3580119 22.3884095,6.23435714 22.3884095,6.14227381 C22.6331766,5.04687937 22.2412915,3.90698819 21.3744655,3.19297619 C20.6146471,2.5629958 19.5673935,2.40687792 18.656569,2.78780952 C18.5969385,2.79174323 18.5371132,2.79174323 18.4774828,2.78780952 C18.4116422,2.78780952 18.3352672,2.78780952 18.253625,2.78780952 C17.1542878,2.33396039 16.0050667,2.01162136 14.8299181,1.8275119 C14.6989807,1.5796222 14.5341116,1.35116442 14.3400647,1.14872619 C13.657613,0.495732673 12.6635858,0.285709927 11.7749181,0.60675 C10.8952888,0.904047619 10.1341724,1.73542857 9.7628319,2.20110714 C9.04912069,2.25372619 7.7007069,2.46420238 6.67622845,3.51658333 C6.95975689,3.86813322 7.16451635,4.27634007 7.27669397,4.71366667 C7.48738362,4.41636905 8.12471983,3.51658333 10.1131034,3.41660714 L10.3975345,3.40082143 L10.5660862,3.17192857 C10.9795647,2.60890476 11.6353362,1.95905952 12.1725948,1.77752381 C12.620991,1.60513037 13.1280979,1.69530395 13.4894052,2.01167857 C13.6578486,2.18886736 13.7902265,2.39706206 13.879181,2.62469048 L14.0055948,2.95882143 L14.3611336,3.00354762 C15.5960011,3.17009812 16.8026191,3.50286515 17.948125,3.99278571 L18.1298448,4.07171429 L18.3247328,4.02435714 C18.3891067,4.01360061 18.4543835,4.00919449 18.5196207,4.01120238 C18.7389655,4.01478959 18.9567346,3.97360758 19.1595905,3.89017857 C19.6619523,3.69737245 20.2299037,3.79868958 20.6344181,4.15327381 C21.1673473,4.60383496 21.3911581,5.32176555 21.2085474,5.99494048 C21.1995415,6.06657178 21.1995415,6.13904727 21.2085474,6.21067857 C21.2165939,6.33156891 21.2165939,6.45285967 21.2085474,6.57375 L21.2085474,6.72634524 L21.2691207,6.86315476 C22.0987112,8.7784881 21.9169914,12.3118571 21.211181,14.0745952 C20.3052155,16.3293214 18.7513793,21.5543929 18.33,23.9117262 C18.2990001,24.0784158 18.1697724,24.2095948 18.003431,24.2432262 C15.0722112,24.808881 13.5262759,25.1745833 13.5262759,25.1745833 L13.5104741,25.1745833 C13.5104741,25.1745833 12.2647716,24.4458095 9.58637931,23.6170595 C9.35007005,23.5437998 9.19665798,23.3161043 9.21767241,23.0698214 C9.31684536,21.8917432 9.32388971,20.7077322 9.23874138,19.5285595 C9.21503879,19.3128214 9.18343534,19.0891905 9.13866379,18.8602976 C9.00434914,18.1394167 8.45128879,17.4395833 7.53742241,16.8397262 C7.06676206,16.5374851 6.58063724,16.2599809 6.08103017,16.0083452 C5.59381034,15.74525 4.69837931,15.2795714 4.36127586,15.0559405 C3.91032353,14.7284919 3.5207239,14.3241463 3.21038362,13.8614881 C4.65360776,14.3561071 6.63409052,14.587631 9.10442672,14.5481667 C9.59164655,14.5955238 10.157875,14.7191786 10.2026466,15.029631 C10.2056729,15.0782968 10.2321945,15.1224546 10.2737543,15.1480238 C10.2999668,15.1665322 10.3312001,15.1766269 10.3632974,15.1769643 L10.4107026,15.1769643 C11.3114009,14.913869 11.9461034,14.3561071 12.0698836,13.7378333 C12.3543147,11.7619881 10.5502845,11.2989405 9.68382328,11.0753095 L9.39939224,10.9990119 C7.16081466,10.2755 7.07653879,8.99422619 7.02913362,8.2259881 C7.02913362,8.11285714 7.02913362,8.01288095 7.00279741,7.92605952 C6.99559768,7.87461415 6.96430075,7.8296704 6.91852155,7.80503571 C6.87226516,7.78116103 6.81729518,7.78116103 6.77103879,7.80503571 L6.34439224,7.99709524 C6.21500946,8.07638584 6.07486562,8.1366398 5.92828017,8.176 C4.02153879,8.96528571 2.57304741,9.14945238 1.61177586,8.74165476 C0.895431034,8.43646429 0.531991379,8.77322619 0.381875,9.00475 C-0.144849138,9.7729881 0.168551724,11.6514881 0.932301724,12.4249881 C1.01384838,12.5319305 1.10179637,12.6338468 1.19566379,12.7301786 C1.45902586,13.3958095 2.36499138,15.195381 3.69233621,16.07675 C4.20325862,16.4135119 5.50953448,17.0896667 5.53587069,17.0949286 C6.06259483,17.3711786 6.56298276,17.6500595 6.88428448,17.8605357 C7.51108621,18.2735952 7.89559483,18.7155952 7.96670259,19.1049762 C8.00357328,19.2996667 8.0325431,19.4943571 8.05097845,19.6785238 C8.16219348,21.194198 8.10123178,22.7175791 7.86925862,24.2195476 C7.57604885,25.4227698 11.4501049,25.5858889 19.4914267,24.7089048 Z M2.61255172,11.1095119 C2.15693534,10.6675119 1.69605172,11.3726071 2.08582759,11.6804286 L2.25701293,11.8172381 C2.15614428,11.8619851 2.04375371,11.873949 1.93571121,11.8514405 C1.77395504,11.8234266 1.62336119,11.7504854 1.50116379,11.6409643 C1.47880762,11.6231221 1.45769008,11.603784 1.4379569,11.5830833 C1.48662887,11.363366 1.47663852,11.1347282 1.40898707,10.9200833 C1.38911201,10.8586285 1.34241228,10.8094929 1.28200753,10.7864806 C1.22160277,10.7634682 1.15401051,10.769062 1.09821983,10.8016905 C1.04247063,10.5353364 1.04247063,10.2603421 1.09821983,9.9939881 C1.16734847,9.71237687 1.44522596,9.5342528 1.73028879,9.58882143 C2.09372845,9.66775 3.284125,9.8834881 3.49744828,10.3491667 C3.5677652,10.4825345 3.55760159,10.6439723 3.47111207,10.7674881 C3.28149138,11.0621548 2.80480603,11.2910476 2.61255172,11.1095119 Z M11.2165905,25.1298571 C11.2329653,25.0774249 11.2732064,25.0358233 11.3251003,25.0176788 C11.3769941,24.9995344 11.4344214,25.0069867 11.4799526,25.0377738 L13.0785603,25.9770238 C13.3261207,25.7744405 14.1530776,25.8139048 14.3400647,26.0664762 L16.0466509,25.3666429 C16.095505,25.3466437 16.1508635,25.3502835 16.1966722,25.3765069 C16.242481,25.4027303 16.2736142,25.4486029 16.2810431,25.5008214 C16.353883,25.9250176 11.0819206,25.5576675 11.2165905,25.1298571 Z" id="Shape" fill="#FFFFFF"></path>
                <path d="M4.93803879,6.61584524 C4.9379533,6.38275978 5.00466638,6.15452182 5.1302931,5.95810714 C5.21363422,6.05630243 5.33589269,6.11304212 5.46476293,6.11333333 C5.71202938,6.11333333 5.91247845,5.91308736 5.91247845,5.66607143 C5.91202395,5.58233406 5.88831996,5.50036492 5.84400431,5.42928571 C5.95029899,5.39951844 6.06018107,5.38446922 6.17057328,5.38455952 C6.49283819,5.38456269 6.80217078,5.51119441 7.03176724,5.73710714 C7.03293053,5.58592812 7.02501545,5.43481549 7.00806466,5.28458333 C6.85531466,4.07434524 6.09156466,3.15877381 5.26197414,3.1535119 C5.21109129,3.15089012 5.16010699,3.15089012 5.10922414,3.1535119 C4.22432759,3.26927381 3.63439655,4.40847619 3.79241379,5.69238095 C3.95043103,6.97628571 4.80635776,7.93132143 5.69125431,7.81555952 L5.73339224,7.76030952 C5.2574213,7.57913764 4.94158418,7.12466762 4.93803879,6.61584524 L4.93803879,6.61584524 Z" id="Path" fill="#FFFFFF"></path>
                <path d="M9.10442672,14.3850476 C9.96562069,14.4692381 10.3237931,14.6955 10.3553966,15.0138452 C11.1454828,14.7770595 11.782819,14.2955952 11.8986983,13.698369 C12.198931,11.6146548 9.97615517,11.3305119 9.34145259,11.1384524 C6.66306034,10.2755 6.92642241,8.58379762 6.82897845,7.93395238 C4.44818534,9.04596825 2.68453736,9.35905159 1.53803448,8.87320238 C-0.184353448,8.14179762 0.0605732759,11.3120952 1.04554741,12.2934405 C2.20434052,13.75625 4.89063362,14.4534524 9.10442672,14.3850476 Z" id="Path"></path>
                <path d="M9.10442672,14.3850476 C9.96562069,14.4692381 10.3237931,14.6955 10.3553966,15.0138452 C11.1454828,14.7770595 11.782819,14.2955952 11.8986983,13.698369 C12.198931,11.6146548 9.97615517,11.3305119 9.34145259,11.1384524 C6.66306034,10.2755 6.92642241,8.58379762 6.82897845,7.93395238 C4.44818534,9.04596825 2.68453736,9.35905159 1.53803448,8.87320238 C-0.184353448,8.14179762 0.0605732759,11.3120952 1.04554741,12.2934405 C2.20434052,13.75625 4.89063362,14.4534524 9.10442672,14.3850476 Z" id="Path"></path>
            </g>
            <path d="M46.24,11.92 C46.51135,11.9234633 46.7820789,11.9468596 47.05,11.99 L73.44,16.62 C75.9908075,17.0772005 77.6959569,19.505476 77.26,22.06 L74.17,39.65 C73.7543757,41.88638 71.8145485,43.51617 69.54,43.54 C69.268123,43.5381338 68.9969892,43.5113551 68.73,43.46 L55.41,41.13 L54.7,40.99 L54.06,41.37 L46.38,44.1 L47.28,42.33 L48.51,39.92 L45.84,39.45 L42.35,38.84 C41.1327761,38.6221215 40.0528748,37.9273849 39.35,36.91 C38.6325749,35.8906341 38.3484918,34.6284421 38.56,33.4 L41.64,15.81 C42.0556243,13.57362 43.9954515,11.94383 46.27,11.92 L46.24,11.92 Z M46.27,9.92 C43.0205742,9.92586839 40.2393881,12.2526399 39.66,15.45 L36.58,33.04 C35.956381,36.6791233 38.385536,40.1397762 42.02,40.79 L45.52,41.4 L44.28,43.83 C44.0079019,44.3569273 44.0300609,44.987566 44.3384721,45.4940956 C44.6468833,46.0006253 45.1969657,46.31 45.79,46.31 C45.9875593,46.309269 46.1836023,46.2754684 46.37,46.21 L54.75,43.21 C54.8637258,43.1647201 54.9740155,43.1112463 55.08,43.05 L68.41,45.38 C68.7892938,45.4508319 69.1741562,45.4876448 69.56,45.49 C72.8134348,45.4815916 75.5935627,43.1437568 76.16,39.94 L79.25,22.35 C79.8732021,18.7075993 77.4385252,15.2454441 73.8,14.6 L47.42,9.97 C47.0364739,9.90693641 46.6486605,9.87350421 46.26,9.87 L46.27,9.92 Z" id="Shape" fill="#627A93" fill-rule="nonzero"></path>
            <path d="M79.99,12.82 L86.29,9.18 M48.64,7 L46.64,0 M64.64,8 L66.64,0" id="Combined-Shape" stroke="#13ACF7" stroke-width="2" stroke-linecap="round" stroke-linejoin="round"></path>
        </g>
    </g>
</svg>