<?xml version="1.0" encoding="UTF-8"?>
<svg width="120px" height="120px" viewBox="0 0 120 120" version="1.1" xmlns="http://www.w3.org/2000/svg" xmlns:xlink="http://www.w3.org/1999/xlink">
    <!-- Generator: Sketch 60.1 (88133) - https://sketch.com -->
    <title>icon/ large/wallet/icon-wallet-blue</title>
    <desc>Created with Sketch.</desc>
    <g id="Icon-large" stroke="none" stroke-width="1" fill="none" fill-rule="evenodd">
        <g id="icon/-large/wallet/icon-wallet-blue">
            <g id="icon/-large/wallet/blue" transform="translate(20.000000, 15.000000)">
                <path d="M73.27,12.82 L79.57,9.18 M42.92,8 L40.92,1 M57.92,8 L59.92,0" id="Combined-Shape" stroke="#30B5F8" stroke-width="2" stroke-linecap="round" stroke-linejoin="round"></path>
                <rect id="Rectangle" fill="#13ACF7" x="61" y="63.95" width="18.93" height="13" rx="4"></rect>
                <path d="M40.2,13.5199972 L40.2,13.58 C40.7093577,13.5789823 41.216772,13.6428291 41.71,13.77 L54.11,17.01 L60.03,18.55 L67.83,20.55 C71.03581,21.3869795 72.9563784,24.6640331 72.12,27.87 L67.842,45.0979972 L68.8016666,45.0704015 C70.6923028,45.0168118 72.5241615,45.7305835 73.8801299,47.0491914 C75.2360984,48.3677993 76,50.1790061 76,52.07 L76,62.9509972 L76.1368896,62.9546195 C78.7976933,63.0681819 80.92,65.2612453 80.92,67.95 L80.92,72.95 C80.92,75.6845093 78.7248481,77.9063134 76.0005928,77.9493636 L76,86.9 C76,92.4228475 71.5228475,96.9 66,96.9 L10,96.9 C4.4771525,96.9 1.8189894e-12,92.4228475 1.8189894e-12,86.9 L1.8189894e-12,76.2 C1.8189894e-12,75.6477153 0.44771525,75.2 1,75.2 C1.55228475,75.2 2,75.6477153 2,76.2 L2,86.9 C2,91.318278 5.581722,94.9 10,94.9 L66,94.9 C70.418278,94.9 74,91.318278 74,86.9 L74,77.9499972 L64.99,77.95 C62.2285763,77.95 59.99,75.7114237 59.99,72.95 L59.99,67.95 C59.99,65.1885763 62.2285763,62.95 64.99,62.95 C65.5422847,62.95 65.99,63.3977153 65.99,63.95 C65.99,64.5022847 65.5422847,64.95 64.99,64.95 C63.3331458,64.95 61.99,66.2931458 61.99,67.95 L61.99,72.95 C61.99,74.6068542 63.3331458,75.95 64.99,75.95 L75.92,75.95 C77.5768542,75.95 78.92,74.6068542 78.92,72.95 L78.92,67.95 C78.92,66.2931458 77.5768542,64.95 75.92,64.95 L69.83,64.95 C69.2777153,64.95 68.83,64.5022847 68.83,63.95 C68.83,63.3977153 69.2777153,62.95 69.83,62.95 L74,62.9499972 L74,52.0695985 C74.0005425,50.7186018 73.4543561,49.4248827 72.4858072,48.4830199 C71.5172584,47.5411571 70.2087878,47.0313202 68.8594228,47.0695671 L7,48.89 C6.67754572,48.89 6.36426189,48.8794548 6.0605589,48.8580823 L5,48.9 C3.87430683,48.9 2.83549949,48.5279975 1.99980567,47.9002202 L2,68.34 C2,68.8922847 1.55228475,69.34 1,69.34 C0.44771525,69.34 1.8189894e-12,68.8922847 1.8189894e-12,68.34 L1.8189894e-12,45.89 C1.8189894e-12,45.4783501 0.0289105769,45.2258158 0.11738904,44.9796114 C0.0403687984,44.6322231 9.45021839e-13,44.2708259 9.45021839e-13,43.9 C9.45021839e-13,41.1385763 2.23857625,38.9 5,38.9 L24.3556225,36.9315033 L24.88,25.34 C25.0024889,22.7704064 27.1175002,20.7477344 29.69,20.74 L29.9,20.66 L33.6060477,20.8312591 L34.39,18 C35.0817075,15.3586395 37.4695718,13.5173947 40.2,13.5199972 Z M37,84.15 C37.8284271,84.15 38.5,84.8215729 38.5,85.65 C38.5,86.4784271 37.8284271,87.15 37,87.15 L10,87.15 C9.17157288,87.15 8.5,86.4784271 8.5,85.65 C8.5,84.8215729 9.17157288,84.15 10,84.15 L37,84.15 Z M43.5,84.15 C44.3284271,84.15 45,84.8215729 45,85.65 C45,86.4784271 44.3284271,87.15 43.5,87.15 C42.6715729,87.15 42,86.4784271 42,85.65 C42,84.8215729 42.6715729,84.15 43.5,84.15 Z M40.2,15.5199938 C38.3733951,15.5167966 36.7766491,16.7513939 36.32,18.5199938 L28.88,45.41 L65.26,44.47 L66.03,44.08 L70.18,27.38 C70.4571858,26.350812 70.3121507,25.2535595 69.7770799,24.3317357 C69.242009,23.4099119 68.3611588,22.739762 67.33,22.47 L59.52,20.47 L53.6,18.9 L41.2,15.67 C40.8740161,15.5819612 40.5376585,15.5382348 40.2,15.54 L40.2,15.5199938 Z M17.9601199,42.1415869 L17.8581196,42.1417965 L5.88811956,42.9717965 C5.4748982,43.0004493 5.16314376,43.3586591 5.19179654,43.7718804 C5.21806158,44.1506667 5.52124604,44.4441925 5.88988006,44.4684131 L5.99188044,44.4682035 L17.9618804,43.6382035 C18.3751018,43.6095507 18.6868562,43.2513409 18.6582035,42.8381196 C18.6343261,42.4937684 18.3815898,42.2198804 18.0588749,42.1547312 L17.9601199,42.1415869 Z M29.82,22.65 L29.69,22.65 L29.69,22.74 C28.1935205,22.753435 26.9642518,23.9258337 26.88,25.42 L26.3715073,36.7264847 L29.2868889,36.4299859 L33.0609648,22.7998366 L29.82,22.65 Z" id="Combined-Shape" fill="#627A93" fill-rule="nonzero"></path>
                <path d="M48.9299978,25.3 C56.6502682,25.3165435 62.9001923,31.5797141 62.9001923,39.3 C62.9094576,41.104701 62.5698927,42.894208 61.9,44.57 L61.9,44.57 L36.26,45.23 C35.3831095,43.3761764 34.9288413,41.3507553 34.9299978,39.3 C34.9299978,31.5680135 41.1980135,25.3 48.9299978,25.3 Z M52.268,31.514 C50.616,31.514 48.348,32.886 46.78,35.462 C45.828,35.462 45.016,35.63 44.204,35.602 C43.476,35.602 43.224,35.854 43.644,36.414 C43.952,36.806 44.68,37.31 45.912,37.254 C45.8,37.562 45.716,37.898 45.716,38.094 C45.212,38.15 44.68,38.206 44.148,38.178 C43.504,38.178 43.252,38.458 43.644,38.99 C43.952,39.382 44.624,39.83 45.744,39.774 C45.996,41.034 46.808,41.902 48.18,42.434 C48.628,42.602 49.104,42.686 49.636,42.686 C50.84,42.686 51.988,42.182 52.66,41.342 C53.192,40.642 53.416,39.802 53.024,39.298 C52.688,38.822 52.436,38.794 52.1,39.354 C51.26,40.754 49.832,41.594 48.908,41.286 C48.32,41.09 48.04,40.474 48.124,39.438 C48.628,39.382 49.132,39.354 49.552,39.382 C50.224,39.438 50.476,39.13 50.112,38.598 C49.86,38.234 49.552,37.814 48.516,37.758 L48.88,36.946 C49.524,36.89 50.168,36.834 50.756,36.862 C51.484,36.89 51.652,36.554 51.372,36.134 C51.148,35.798 50.812,35.434 49.972,35.294 C51.176,33.838 52.604,32.858 53.024,33.138 C53.22,33.25 52.912,33.894 52.576,34.538 C52.296,35.098 51.988,35.994 51.988,36.414 C51.988,37.002 52.296,37.478 52.8,37.814 C53.416,38.178 53.668,37.954 53.864,37.478 C53.948,37.198 54.172,36.75 54.396,36.386 C54.956,35.35 55.516,34.37 55.068,33.418 C54.76,32.858 54.256,32.298 53.444,31.766 C53.136,31.57 52.744,31.514 52.268,31.514 Z" id="Combined-Shape" fill="#13ACF7"></path>
            </g>
        </g>
    </g>
</svg>