<?xml version="1.0" encoding="UTF-8"?>
<svg width="120px" height="120px" viewBox="0 0 120 120" version="1.1" xmlns="http://www.w3.org/2000/svg">
    <!-- Generator: Sketch 60.1 (88133) - https://sketch.com -->
    <title>icon/large/compare/icon-compare-blue</title>
    <g id="icon/large/compare/icon-compare-blue" stroke="none" stroke-width="1" fill="none" fill-rule="evenodd">
        <g id="icon/large/compare/blue" transform="translate(7.000000, 27.000000)">
            <path d="M13.061,68.086 C14.0551125,68.086 14.861,68.8918875 14.861,69.886 L14.861,76.286 C14.861,77.2801125 14.0551125,78.086 13.061,78.086 L6.661,78.086 C5.66688745,78.086 4.861,77.2801125 4.861,76.286 L4.861,69.886 C4.861,68.8918875 5.66688745,68.086 6.661,68.086 L13.061,68.086 Z M83.4,27 C87.0450793,27 90,29.9549207 90,33.6 L90,48.4 C90,48.6477638 89.9863476,48.892339 89.9597542,49.1330142 L81.3,42.31 L81.065,55 L19.6,55 C15.9549207,55 13,52.0450793 13,48.4 L13,33.6 C13,29.9549207 15.9549207,27 19.6,27 L83.4,27 Z M31.7,33 L23.3,33 C21.5403065,33 20.1023041,34.3773233 20.0052239,36.1127388 L20,36.3 L20,44.7 C20,46.4596935 21.3773233,47.8976959 23.1127388,47.9947761 L23.3,48 L31.7,48 C33.4596935,48 34.8976959,46.6226767 34.9947761,44.8872612 L35,44.7 L35,36.3 C35,34.4774603 33.5225397,33 31.7,33 Z M68,43 L50,43 C49.1715729,43 48.5,43.6715729 48.5,44.5 C48.5,45.2796961 49.0948881,45.9204487 49.85554,45.9931334 L50,46 L68,46 C68.8284271,46 69.5,45.3284271 69.5,44.5 C69.5,43.6715729 68.8284271,43 68,43 Z M80,35 L50,35 C49.1715729,35 48.5,35.6715729 48.5,36.5 C48.5,37.2796961 49.0948881,37.9204487 49.85554,37.9931334 L50,38 L80,38 C80.8284271,38 81.5,37.3284271 81.5,36.5 C81.5,35.6715729 80.8284271,35 80,35 Z M12.854,5.113 C13.8481125,5.113 14.654,5.91888745 14.654,6.913 L14.654,13.313 C14.654,14.3071125 13.8481125,15.113 12.854,15.113 L6.454,15.113 C5.45988745,15.113 4.654,14.3071125 4.654,13.313 L4.654,6.913 C4.654,5.91888745 5.45988745,5.113 6.454,5.113 L12.854,5.113 Z" id="Combined-Shape" fill="#13ACF7"></path>
            <path d="M12.1088811,63.1 C12.6059374,63.1 13.0088811,63.5029437 13.0088811,64 C13.0088811,64.4970563 12.6059374,64.9 12.1088811,64.9 L5.37319026,64.899998 C3.46408336,64.9040087 1.90794454,66.4928058 1.9,68.463039 L1.8999927,77.5333353 C1.90794454,79.5071942 3.46408336,81.0959913 5.37129955,81.1 L50.6358316,81.1 C52.5427479,81.0959752 54.0960242,79.5068173 54.1,77.536961 L54.1,68.4648547 C54.0960242,66.4931827 52.5427479,64.9040248 50.6377321,64.9 L18.9729052,64.9 C18.4758489,64.9 18.0729052,64.4970563 18.0729052,64 C18.0729052,63.5029437 18.4758489,63.1 18.9729052,63.1 L50.6396326,63.1 C53.5470224,63.1061415 55.8940391,65.5073757 55.9,68.463039 L55.9,77.5387766 C55.8940391,80.4926243 53.5470224,82.8938585 50.6377321,82.9 L5.36940883,82.9 C2.46125837,82.8938886 0.111910329,80.4952353 0.1,77.536961 L0.1,68.4594133 C0.111910329,65.5047647 2.46125837,63.1061114 5.37129955,63.1 L12.1088811,63.1 Z M42.094,74.332 C42.5910563,74.332 42.994,74.7349437 42.994,75.232 C42.994,75.7290563 42.5910563,76.132 42.094,76.132 L29.494,76.132 C28.9969437,76.132 28.594,75.7290563 28.594,75.232 C28.594,74.7349437 28.9969437,74.332 29.494,74.332 L42.094,74.332 Z M49.294,69.256 C49.7910563,69.256 50.194,69.6589437 50.194,70.156 C50.194,70.6530563 49.7910563,71.056 49.294,71.056 L29.494,71.056 C28.9969437,71.056 28.594,70.6530563 28.594,70.156 C28.594,69.6589437 28.9969437,69.256 29.494,69.256 L49.294,69.256 Z M81.9188194,41.5244667 L101.378819,56.8544667 C102.0537,57.3861172 101.788237,58.4651333 100.943724,58.6229778 L92.7574769,60.1530367 L96.1910488,67.2862822 C96.4303613,67.783454 96.2217609,68.3805088 95.724905,68.6204763 L92.494905,70.1804763 C91.9972716,70.4208194 91.3990343,70.2119485 91.1591357,69.7141007 L87.6235427,62.3768872 L81.5158186,67.977068 C80.8679644,68.5710864 79.8239546,68.1003632 79.8399835,67.2215515 L80.3001702,42.2915515 C80.3154176,41.4652088 81.2695892,41.0130228 81.9188194,41.5244667 Z M82.2626876,44.3413967 L81.8828474,64.9270848 L87.2641814,59.992932 C87.7584013,59.5397811 88.5497905,59.6918504 88.8408643,60.2958993 L92.5263758,67.9442301 L93.9558047,67.2538558 L90.3889512,59.8437178 C90.103403,59.2504913 90.4591091,58.5479815 91.1062755,58.4270222 L98.4101545,57.0618833 L82.2626876,44.3413967 Z M50.6415155,0.1 C53.5450711,0.112214123 55.8881212,2.50570396 55.9,5.45617632 L55.9,14.5456421 C55.894037,17.4960035 53.5467039,19.8938687 50.6377321,19.9 L5.36037036,19.9 C2.45329611,19.8938687 0.105963025,17.4960035 0.1,14.5438237 L0.1,5.48022876 C0.111878835,2.53338208 2.45492885,0.139892236 5.36226794,0.127678114 L12.0998495,0.127678114 C12.5969057,0.127678114 12.9998495,0.530621839 12.9998495,1.02767811 C12.9998495,1.52473439 12.5969057,1.92767811 12.0998495,1.92767811 L5.36605139,1.92767016 C3.45940227,1.93568547 1.9079165,3.52057072 1.9,5.48385443 L1.89999816,14.5420052 C1.90397366,16.5095896 3.45693357,18.0959807 5.36226794,18.1 L50.6358345,18.1 C52.5430664,18.0959807 54.0960263,16.5095896 54.1,14.5438237 L54.1,5.45980199 C54.0920835,3.49289261 52.5405977,1.90800735 50.6377321,1.9 L18.9729052,1.9 C18.4758489,1.9 18.0729052,1.49705627 18.0729052,1 C18.0729052,0.502943725 18.4758489,0.1 18.9729052,0.1 L50.6415155,0.1 Z M42.085,11.332 C42.5820563,11.332 42.985,11.7349437 42.985,12.232 C42.985,12.7290563 42.5820563,13.132 42.085,13.132 L29.485,13.132 C28.9879437,13.132 28.585,12.7290563 28.585,12.232 C28.585,11.7349437 28.9879437,11.332 29.485,11.332 L42.085,11.332 Z M49.285,6.265 C49.7820563,6.265 50.185,6.66794373 50.185,7.165 C50.185,7.66205627 49.7820563,8.065 49.285,8.065 L29.485,8.065 C28.9879437,8.065 28.585,7.66205627 28.585,7.165 C28.585,6.66794373 28.9879437,6.265 29.485,6.265 L49.285,6.265 Z" id="Combined-Shape" fill="#627A93" fill-rule="nonzero"></path>
            <path d="M99.32,24.74 L105.62,21.1 M83.97,19.92 L85.97,11.92 M104.95,43.24 L97.64,39.42" id="Combined-Shape" stroke="#30B5F8" stroke-width="2" stroke-linecap="round" stroke-linejoin="round"></path>
        </g>
    </g>
</svg>